<svg id="Layer_1" data-name="Layer 1" xmlns="http://www.w3.org/2000/svg" width="1035.34" height="471.25" viewBox="0 0 1035.34 471.25"><title>logo</title><text transform="translate(476.88 203.79)" style="font-size:241.5972137451172px;fill:#fff;font-family:Gill Sans">NINE<tspan x="14.6" y="200" style="letter-spacing:36px"> </tspan><tspan x="117.97" y="200">FIVE</tspan></text><text transform="translate(495.11 278.71)" style="font-size:58.417606353759766px;fill:#fff;font-family:Helvetica;font-weight:700"><tspan style="letter-spacing:-1px">T</tspan><tspan x="34.66" y="0">O</tspan></text><path d="M-106,6049.11S-170.13,6144-296.2,6144H-449.5c-34.5,0-34.5,29.5-34.5,29.5v139s0,27.5,26,27.5h176.29s85.71-5.6,175.71,89.16V6049.11Z" transform="translate(493.25 -6009.65)" style="fill:#fff"/><path d="M-541.33,6309.67" transform="translate(493.25 -6009.65)" style="fill:#fff"/><path d="M-450.79,6340c19,28.07,27.87,144,58,140.84s62.63-10.87,40.31-49.61C-368.63,6403.14-378.13,6352-392,6340-429.61,6307.46-463.21,6321.61-450.79,6340Z" transform="translate(493.25 -6009.65)" style="fill:#fff"/><path d="M-63.5,6200.5v73A5.5,5.5,0,0,1-69,6279h0a5.5,5.5,0,0,1-5.5-5.5v-73A5.5,5.5,0,0,1-69,6195h0A5.5,5.5,0,0,1-63.5,6200.5Z" transform="translate(493.25 -6009.65)" style="fill:#fff"/><path d="M-415.5,6339.5c19,28.07,6.58,43.46,36.75,40.34s10.12-27.34-3.75-39.34C-420.11,6308-427.93,6321.11-415.5,6339.5Z" transform="translate(493.25 -6009.65)" style="fill:#fff"/><rect x="387.25" y="14.04" width="36.62" height="430.62" rx="18.31" ry="18.31" style="fill:#fff"/><rect y="191.85" width="18.5" height="92.5" rx="9.25" ry="9.25" style="fill:#fff"/></svg>