<svg id="Layer_1" data-name="Layer 1" xmlns="http://www.w3.org/2000/svg" width="1259.52" height="364.58" viewBox="0 0 1259.52 364.58">
    <title>logo-ucu</title>
    <g>
        <text transform="translate(0 170.44)" style="font-size:179.08175659179688px;fill:#fff;font-family:Gill Sans">NINE<tspan x="10.83" y="148.25" style="letter-spacing:26px"> </tspan>
            <tspan x="87.44" y="148.25">FIVE</tspan>
        </text>
        <text transform="translate(13.51 225.98)" style="font-size:43.3015251159668px;fill:#fff;font-family:Helvetica;font-weight:700">T<tspan x="25.69" y="0">O</tspan>
        </text>
        <rect x="474.6" width="11.95" height="364.58" style="fill:#fff"/>
    </g>
    <g transform="translate(550.000000,369.000000) scale(0.100000,-0.100000)"
       fill="#FFFFFF" stroke="none">
        <path d="M0 1865 l0 -1825 400 0 400 0 0 73 c0 39 -5 106 -11 147 -5 41 -10
            169 -10 285 -1 377 36 528 223 925 76 159 102 244 102 335 1 95 -17 133 -82
            179 -72 51 -187 38 -337 -37 -129 -64 -250 -173 -371 -334 -53 -70 -121 -133
            -157 -146 -30 -11 -64 3 -76 29 -62 136 197 546 472 747 187 137 318 195 627
            277 214 57 305 88 395 132 56 29 224 134 235 148 3 3 15 13 27 21 12 8 51 41
            88 74 143 126 257 298 351 530 74 183 106 224 160 211 37 -10 54 -59 54 -158
            0 -89 27 -235 61 -333 102 -289 278 -476 485 -514 322 -60 588 134 710 517 30
            92 41 158 54 309 12 143 20 170 56 179 48 12 91 -37 140 -160 44 -109 49 -120
            100 -222 143 -283 397 -511 719 -644 61 -25 114 -42 240 -75 77 -20 164 -43
            194 -51 231 -62 466 -199 642 -373 83 -84 189 -212 189 -230 0 -6 4 -11 8 -11
            10 0 84 -145 112 -218 20 -52 26 -125 14 -157 -4 -9 -18 -21 -31 -26 -52 -20
            -118 32 -246 195 -121 153 -288 281 -427 327 -84 28 -186 30 -226 5 -73 -47
            -113 -133 -101 -220 9 -64 49 -179 101 -289 25 -53 46 -99 46 -102 0 -3 13
            -33 29 -68 38 -79 86 -206 105 -277 50 -182 65 -439 42 -722 -9 -109 -16 -216
            -16 -238 l0 -40 405 0 405 0 0 1825 0 1825 -3150 0 -3150 0 0 -1825z m1345
            1540 c127 -60 259 -228 285 -363 6 -31 13 -68 16 -82 10 -48 -17 -159 -49
            -208 -147 -218 -503 -42 -593 293 -17 60 -18 174 -3 224 17 58 60 113 109 138
            39 21 56 24 120 21 46 -2 91 -11 115 -23z m3862 -11 c114 -91 129 -284 36
            -470 -52 -106 -180 -222 -278 -254 -68 -22 -148 -16 -197 15 -83 52 -118 125
            -118 246 0 185 128 391 292 469 57 28 71 31 145 28 73 -3 85 -6 120 -34z
            m-1979 -63 c107 -55 169 -192 159 -355 -10 -192 -111 -322 -247 -320 -130 2
            -225 125 -239 310 -7 104 2 154 44 239 61 126 180 179 283 126z"/>
                    <path d="M3891 2946 c-54 -132 -89 -201 -179 -354 -24 -40 -50 -90 -58 -110
            -8 -20 -20 -48 -26 -62 -27 -62 -25 -55 -64 -199 -35 -129 -35 -347 1 -521 33
            -156 11 -372 -68 -670 -52 -200 -61 -317 -42 -551 7 -85 7 -86 -20 -107 -162
            -128 -304 357 -238 813 23 157 22 224 -2 241 -27 20 -34 18 -69 -19 -19 -20
            -42 -64 -59 -113 -29 -84 -67 -321 -67 -416 0 -60 30 -289 55 -418 34 -179 42
            -344 19 -403 -6 -16 46 -17 675 -17 667 0 681 0 681 19 0 11 -4 31 -10 45 -5
            15 -11 41 -14 59 -2 17 -11 82 -20 142 -19 126 -21 362 -6 590 18 283 23 624
            11 770 -28 336 -93 554 -284 955 -25 52 -57 122 -70 155 -71 168 -104 245
            -108 249 -2 2 -19 -33 -38 -78z"/>
                    <path d="M2311 2907 c-24 -61 -63 -152 -86 -202 -151 -323 -193 -424 -239
            -583 -90 -306 -106 -539 -79 -1133 21 -452 14 -667 -26 -844 -11 -50 -21 -93
            -21 -97 0 -5 221 -8 492 -8 l491 0 -6 106 c-6 108 -18 168 -70 359 -85 314
            -100 408 -100 620 -1 187 10 264 62 475 68 272 73 303 74 430 1 181 -9 206
            -259 643 -19 33 -42 71 -53 85 -10 15 -35 65 -55 112 -63 142 -67 150 -74 150
            -4 0 -27 -51 -51 -113z"/>
                    <path d="M1281 799 c-12 -13 -21 -25 -21 -28 -1 -3 -5 -26 -11 -51 -6 -25 -19
            -144 -29 -265 -19 -208 -32 -326 -46 -387 l-6 -28 120 0 119 0 7 79 c4 43 7
            164 7 267 -1 280 -32 425 -93 432 -17 2 -34 -5 -47 -19z"/>
                    <path d="M4936 801 c-9 -10 -26 -47 -37 -82 -24 -77 -36 -352 -24 -552 l7
            -127 119 0 c65 0 119 4 119 8 0 5 -7 53 -15 108 -8 54 -19 164 -25 244 -18
            225 -37 348 -61 386 -24 39 -56 45 -83 15z"/>
    </g>
</svg>