<svg id="Layer_1" data-name="Layer 1" xmlns="http://www.w3.org/2000/svg" width="1559.52" height="364.58" viewBox="0 0 1559.52 364.58">
    <title>logo-ucu</title>
    <text transform="translate(0 170.44)" style="font-size:179.08175659179688px;fill:#fff;font-family:Gill Sans">NINE
        <tspan x="10.83" y="148.25" style="letter-spacing:26px"> </tspan><tspan x="87.44" y="148.25">FIVE</tspan></text>
    <text transform="translate(13.51 225.98)" style="font-size:43.3015251159668px;fill:#fff;font-family:Helvetica;font-weight:700">T
        <tspan x="25.69" y="0">O</tspan>
    </text><rect x="474.6" width="11.95" height="364.58" style="fill:#fff"/>
    <path d="M1397,1885v197H1287.3c-23.81,0-51-16.53-65-30.54s-30.25-40.31-30.25-62V1885h59v101.12c0,9.16,8.08,41.82,43.39,41.82s44.61-32.66,44.61-41.82V1885h58Z" transform="translate(-237.73 -1840.08)" style="fill:#fff"/>
    <path d="M996,1889v67.7s15.93-48.38,57.75-63.95,72.37-3.66,94,7.94,41.53,42.43,44.27,64.4c-11.41,0-35.1.31-55.54,0.31-2.6-9.41-24.64-32.6-50.32-26.68s-36.67,23-36.67,52.93c0,15.19,15.25,42.6,40.89,42.6,13.06,0,32.67-3.53,45.49-25.81,22.59,0,37.92.18,57.76,0.18,0,9.46-10.15,37.06-37.62,59.65s-78.5,25-113.91,5.49c-34.26-18.9-46.15-57.08-46.15-57.08V2086H886.23c-23.81,0-51-16.53-65-30.54s-30.22-40.31-30.22-62V1889h59v101.12c0,9.16,8.08,41.82,43.39,41.82S938,1999.28,938,1990.12V1889h58Z" transform="translate(-237.73 -1840.08)" style="fill:#fff"/>
    <text transform="translate(552.27 318.59)" style="font-size:81.60363006591797px;fill:#fff;font-family:Myriad Pro">No
    <tspan x="106.58" y="0">r</tspan><tspan x="138.82" y="0">thumbria</tspan></text></svg>