<?xml version="1.0" standalone="no"?>
<!DOCTYPE svg PUBLIC "-//W3C//DTD SVG 20010904//EN"
 "http://www.w3.org/TR/2001/REC-SVG-20010904/DTD/svg10.dtd">
<svg version="1.0" xmlns="http://www.w3.org/2000/svg"
 width="3043.000000pt" height="1335.000000pt" viewBox="0 0 3043.000000 1335.000000"
 preserveAspectRatio="xMidYMid meet">

<g transform="translate(0.000000,1335.000000) scale(0.100000,-0.100000)" stroke="none">
<path d="M0 6675 l0 -6675 15215 0 15215 0 0 6675 0 6675 -15215 0 -15215 0 0
-6675z m25741 3710 c87 -30 159 -132 159 -224 0 -128 -114 -241 -243 -241 -91
0 -177 52 -219 134 -31 57 -31 155 0 213 25 48 85 102 133 119 48 17 118 17
170 -1z m-16724 -1442 c-1 -786 -6 -1439 -9 -1453 -4 -14 -9 -56 -13 -95 -32
-346 -175 -966 -280 -1219 l-14 -33 -142 93 c-79 52 -146 94 -151 94 -17 0 -6
25 83 191 50 94 89 172 87 173 -6 5 -630 336 -633 336 -2 0 -35 -60 -73 -132
-109 -208 -130 -243 -144 -242 -7 1 -79 23 -160 49 -109 36 -148 53 -148 64 0
9 20 94 44 189 31 120 41 175 33 177 -41 15 -689 169 -691 165 -2 -3 -25 -94
-52 -203 -48 -197 -49 -198 -74 -194 -14 3 -79 11 -145 17 -66 6 -135 14 -152
16 l-33 5 0 199 0 200 -365 0 -365 0 0 -200 0 -199 -32 -5 c-18 -3 -87 -10
-153 -16 -66 -6 -131 -13 -145 -16 -25 -5 -26 -3 -74 193 -27 109 -50 201 -52
204 -2 4 -160 -33 -351 -81 -313 -78 -348 -89 -345 -106 2 -10 21 -95 44 -187
22 -93 38 -170 37 -172 -2 -1 -74 -26 -159 -54 -121 -39 -157 -48 -166 -38 -6
6 -46 80 -89 162 -65 125 -91 172 -111 203 -2 3 -622 -324 -633 -334 -2 -2 38
-80 88 -173 90 -168 100 -191 82 -191 -5 0 -73 -43 -152 -95 -78 -52 -144 -94
-145 -92 -1 1 -27 80 -58 175 -124 383 -206 786 -241 1180 -12 137 -15 412
-15 1520 l0 1352 3035 0 3036 0 -4 -1427z m2370 1230 c394 -530 472 -636 612
-826 82 -113 162 -224 177 -247 15 -22 29 -39 31 -37 2 2 3 297 3 656 l0 651
215 0 215 0 -2 -997 -3 -998 -210 0 -209 0 -309 415 c-170 228 -385 521 -479
650 -94 129 -173 238 -177 242 -3 4 -5 -290 -3 -652 l4 -660 -216 0 -216 0 0
1000 0 1000 210 0 210 0 147 -197z m6072 180 c-1 -10 -1 -181 0 -380 l1 -362
55 38 c113 79 249 117 392 108 111 -6 175 -26 255 -80 106 -72 160 -172 179
-331 5 -45 9 -282 9 -529 l0 -447 -212 2 -213 3 -5 457 c-5 444 -6 457 -26
485 -51 68 -133 95 -226 73 -55 -13 -133 -49 -180 -82 l-28 -19 -2 -457 -3
-457 -212 -3 -213 -2 0 1000 0 1000 216 0 c199 0 215 -1 213 -17z m5631 -333
l0 -350 51 25 c76 39 190 65 284 65 299 0 544 -196 621 -495 23 -93 24 -283 1
-378 -104 -424 -539 -646 -982 -502 l-73 24 -148 -24 c-81 -14 -154 -25 -161
-25 -11 0 -13 186 -13 1005 l0 1005 210 0 210 0 0 -350z m-6510 -290 l180 0 0
-175 0 -175 -181 0 -180 0 3 -282 c3 -255 5 -287 22 -322 26 -52 68 -76 133
-76 44 0 125 19 186 45 16 7 17 -3 15 -161 l-3 -169 -47 -22 c-25 -13 -90 -30
-143 -40 -233 -41 -447 45 -529 212 -49 101 -56 161 -56 503 l0 312 -110 0
-110 0 0 175 0 175 110 0 110 0 0 178 0 178 208 35 207 35 3 -213 2 -213 180
0z m-2780 15 c279 -59 495 -255 566 -515 24 -86 24 -261 1 -350 -32 -122 -91
-225 -181 -314 -45 -45 -110 -98 -146 -119 -127 -73 -302 -113 -455 -104 -344
22 -609 227 -691 537 -23 86 -23 252 -1 340 63 244 262 443 508 509 100 27
109 28 226 30 58 0 133 -5 173 -14z m7383 -1 c87 -22 152 -58 210 -116 33 -33
54 -48 62 -42 141 108 280 165 425 172 111 5 183 -7 266 -47 110 -53 168 -120
216 -247 22 -58 23 -70 26 -576 l3 -518 -211 0 -210 0 0 420 c0 252 -4 438
-10 468 -28 129 -172 175 -325 104 -36 -18 -78 -41 -92 -52 l-26 -20 -1 -458
-1 -457 -212 -3 -212 -2 -3 452 c-3 510 -1 493 -79 545 -35 23 -52 27 -108 27
-76 -1 -156 -28 -220 -74 l-41 -30 0 -460 0 -460 -212 2 -213 3 -2 678 -2 677
209 0 209 0 3 -61 3 -61 44 33 c56 40 150 84 221 103 73 20 208 20 283 0z
m5772 -9 c146 -41 267 -128 313 -228 44 -95 51 -152 52 -459 0 -236 3 -295 15
-319 18 -33 50 -44 100 -35 l35 7 0 -159 0 -159 -58 -17 c-73 -20 -200 -21
-277 -1 -33 9 -83 32 -112 51 l-52 36 -53 -30 c-217 -123 -545 -98 -692 53
-68 70 -99 142 -104 246 -14 283 180 449 528 450 109 1 192 -6 234 -18 18 -5
19 -1 13 57 -8 73 -30 116 -76 147 -99 67 -343 50 -521 -36 l-60 -29 2 186 3
186 94 33 c145 52 223 63 401 59 102 -3 175 -10 215 -21z m-11456 9 l31 -6 0
-197 0 -197 -88 4 c-146 7 -253 -26 -344 -107 l-48 -43 0 -414 0 -414 -210 0
-210 0 0 680 0 680 205 0 205 0 0 -90 0 -91 58 58 c31 32 81 71 110 86 82 44
211 67 291 51z m9675 -4 l25 -9 0 -193 -1 -193 -126 0 c-122 0 -130 -1 -195
-32 -37 -18 -88 -49 -112 -69 l-45 -36 -2 -417 -3 -416 -212 -3 -213 -2 0 680
0 680 210 0 210 0 -3 -90 c-1 -50 -1 -90 0 -90 2 0 22 21 45 46 73 79 149 122
253 144 57 11 139 12 169 0z m-6124 -442 c0 -286 4 -444 11 -469 44 -144 246
-165 412 -44 l47 35 0 455 0 455 210 0 210 0 0 -680 0 -680 -207 2 -208 3 0
63 c0 34 -1 62 -2 62 -2 0 -24 -16 -50 -37 -245 -187 -614 -153 -763 70 -82
121 -89 187 -90 750 l0 447 215 0 214 0 1 -432z m6820 -248 l0 -680 -212 2
-213 3 -3 678 -2 677 215 0 215 0 0 -680z m-11130 -1437 c127 -51 181 -209
114 -333 -80 -148 -282 -170 -394 -43 -22 25 -44 62 -50 82 -57 205 133 375
330 294z m6285 2 c111 -45 169 -177 133 -299 -18 -60 -92 -131 -159 -150 -65
-20 -82 -20 -147 -1 -68 21 -132 84 -155 155 -20 62 -21 77 -6 135 13 50 74
127 120 150 66 35 146 39 214 10z m-9761 -13 c3 -5 6 -286 6 -623 1 -677 2
-697 63 -812 55 -104 156 -169 293 -188 261 -36 446 88 494 330 18 89 19 141
19 719 l1 582 213 -2 212 -3 0 -610 c0 -653 -3 -705 -52 -875 -99 -345 -394
-542 -813 -542 -149 0 -234 13 -355 53 -228 76 -386 231 -459 449 -55 167 -59
214 -63 883 -3 340 -2 624 0 631 4 11 54 14 220 15 125 1 218 -2 221 -7z
m10766 -424 l0 -213 180 2 180 3 0 -180 0 -180 -181 3 -180 2 3 -280 c3 -257
5 -283 23 -319 32 -62 65 -81 143 -80 48 0 84 7 130 26 l62 26 0 -169 0 -169
-40 -20 c-100 -51 -302 -68 -415 -35 -160 46 -248 128 -298 278 -19 57 -21 90
-25 402 l-4 340 -109 -3 -109 -3 0 181 0 181 110 -3 110 -3 0 177 0 176 93 16
c50 9 139 25 197 35 58 10 111 19 118 20 9 1 12 -48 12 -211z m-15800 -153 l0
-194 33 -5 c17 -3 77 -8 132 -11 55 -3 167 -15 250 -25 82 -11 150 -18 151
-17 1 1 22 87 47 191 25 103 48 191 51 193 3 3 109 -20 236 -52 183 -46 230
-61 230 -74 0 -9 -20 -94 -44 -188 l-44 -173 42 -10 c22 -5 140 -43 262 -83
l221 -72 89 169 c49 93 94 175 100 183 9 13 45 -3 219 -96 114 -61 210 -113
213 -115 2 -3 -37 -82 -87 -177 -51 -94 -91 -172 -89 -173 2 -1 62 -37 133
-80 72 -43 165 -102 207 -132 l77 -54 -28 -67 c-96 -232 -197 -427 -369 -713
-402 -670 -914 -1283 -1439 -1722 -294 -246 -489 -380 -712 -489 l-123 -61
-85 38 c-533 237 -1279 920 -1825 1669 -215 295 -431 642 -579 930 -103 199
-192 403 -183 417 8 13 270 184 349 228 33 18 61 34 63 35 1 1 -38 78 -88 171
-49 93 -90 172 -90 175 0 12 423 230 430 222 4 -4 35 -60 68 -123 34 -63 76
-142 94 -176 l33 -61 105 39 c58 21 175 59 261 84 l156 47 -43 171 c-24 94
-44 178 -44 187 0 13 46 28 225 73 124 31 229 56 234 56 5 0 30 -87 56 -192
26 -106 49 -194 50 -196 2 -2 49 4 106 12 92 13 275 30 409 39 l45 3 3 197 2
197 245 0 245 0 0 -195z m7625 -57 c117 -39 207 -115 250 -213 47 -105 50
-148 50 -665 l0 -485 -210 0 -210 0 -3 445 c-2 441 -2 445 -25 489 -50 97
-180 119 -321 53 -37 -17 -80 -41 -97 -52 l-29 -21 0 -460 0 -459 -210 0 -210
0 0 686 0 685 208 -3 207 -3 3 -62 3 -62 47 33 c163 116 372 152 547 94z
m3611 7 c215 -49 386 -211 447 -425 23 -79 36 -223 29 -305 l-7 -70 -457 -3
c-325 -1 -458 -5 -458 -13 0 -6 14 -38 32 -71 55 -103 146 -160 286 -177 141
-17 283 12 435 88 l97 49 -2 -176 -3 -177 -58 -28 c-136 -66 -379 -104 -551
-86 -392 40 -649 292 -672 658 -30 485 402 846 882 736z m2664 -1 c99 -18 164
-36 238 -65 l53 -22 -1 -178 c-1 -99 -5 -179 -10 -179 -4 0 -35 13 -68 30
-127 63 -320 110 -446 110 -108 -1 -178 -50 -162 -115 10 -40 56 -60 204 -90
335 -66 477 -145 533 -294 17 -46 20 -72 17 -151 -3 -81 -8 -105 -35 -163 -83
-177 -290 -279 -563 -279 -177 0 -313 23 -467 78 l-73 26 0 184 c0 101 2 184
4 184 2 0 41 -18 87 -39 172 -81 398 -126 514 -103 71 15 105 43 105 88 0 73
-18 83 -214 124 -231 48 -334 85 -419 152 -117 93 -156 262 -97 421 90 240
408 351 800 281z m-1046 0 c14 -5 16 -32 16 -200 l0 -194 -90 4 c-146 6 -257
-29 -348 -110 l-43 -39 0 -412 c0 -339 -3 -412 -14 -417 -7 -2 -103 -4 -212
-3 l-198 2 0 680 0 680 205 0 205 0 5 -87 5 -88 48 50 c89 92 198 139 329 139
42 1 83 -2 92 -5z m-4234 -688 l0 -685 -210 -1 -210 -1 0 679 c0 373 3 682 7
685 3 4 98 7 210 7 l203 0 0 -684z m650 664 c10 -19 214 -575 271 -742 19 -54
36 -98 39 -98 3 0 21 42 39 93 62 170 284 742 294 755 13 16 413 13 410 -3 -2
-14 -528 -1308 -542 -1334 -12 -21 -17 -22 -207 -21 -171 1 -195 4 -203 18
-19 36 -541 1329 -541 1340 0 8 58 11 215 11 200 0 215 -1 225 -19z m5635
-665 l0 -680 -207 -3 -208 -2 0 685 0 685 208 -2 207 -3 0 -680z m1983 417
c61 -147 131 -320 157 -385 26 -65 49 -117 50 -115 2 2 19 44 40 93 103 253
280 652 294 663 12 10 63 13 214 11 190 -2 197 -3 191 -22 -3 -10 -39 -92 -79
-180 -40 -89 -234 -520 -430 -957 -196 -437 -360 -798 -364 -803 -4 -4 -102
-6 -219 -5 l-211 3 174 370 c96 204 175 375 175 381 0 10 -176 400 -466 1031
-41 89 -74 166 -74 172 0 7 76 10 219 10 l218 0 111 -267z m-6658 -2296 c41
-8 109 -27 150 -43 l75 -28 3 -68 c2 -37 1 -67 -1 -67 -2 0 -34 16 -72 35
-215 108 -501 86 -684 -53 -150 -114 -233 -291 -232 -497 0 -213 92 -394 256
-504 195 -130 451 -143 675 -33 41 20 78 39 83 40 4 2 7 -26 7 -62 l0 -66 -49
-25 c-105 -53 -193 -70 -356 -70 -129 0 -160 3 -225 23 -257 81 -435 267 -496
519 -26 104 -23 278 4 376 40 141 87 222 187 323 75 76 105 98 175 132 47 22
105 46 130 53 115 30 254 36 370 15z m2692 -11 c36 -9 95 -31 130 -49 l63 -31
3 -66 3 -67 -86 43 c-106 54 -196 75 -313 75 -141 0 -227 -40 -274 -126 -31
-59 -38 -103 -27 -174 18 -115 87 -166 318 -235 85 -26 178 -57 208 -70 167
-75 240 -191 231 -369 -10 -187 -130 -318 -326 -356 -137 -27 -351 6 -477 73
l-60 32 -3 68 c-2 37 0 67 3 67 4 0 20 -9 35 -20 86 -61 231 -109 351 -115
206 -11 342 83 356 244 15 166 -72 249 -342 326 -293 83 -403 175 -421 352
-20 197 88 352 286 406 79 21 240 17 342 -8z m-7775 -582 c242 -324 447 -599
456 -613 16 -23 17 13 17 588 l0 612 60 0 60 0 0 -710 0 -710 -59 0 -59 0
-439 588 c-242 323 -447 598 -456 612 -16 23 -17 -13 -17 -588 l0 -612 -60 0
-60 0 0 710 0 710 59 0 59 0 439 -587z m1808 527 c0 -54 0 -55 -30 -56 -16 -1
-166 -2 -332 -3 l-303 -1 0 -255 0 -255 295 0 295 0 0 -55 0 -55 -295 0 -295
0 0 -285 0 -285 340 0 340 0 0 -55 0 -55 -400 0 -400 0 0 710 0 710 393 -2
392 -3 0 -55z m525 -177 c40 -131 126 -409 191 -617 l117 -379 27 88 c60 199
355 1128 361 1136 3 5 24 9 47 9 l42 0 168 -532 c92 -293 179 -571 193 -617
l26 -85 102 330 c56 181 142 458 191 616 l90 288 63 0 c47 0 62 -3 59 -12 -2
-7 -103 -327 -223 -711 l-219 -698 -64 3 -63 3 -114 360 c-63 198 -144 457
-181 575 -61 199 -83 257 -83 219 0 -12 -97 -323 -316 -1017 l-45 -143 -66 3
-65 3 -219 695 c-120 382 -219 701 -219 708 0 8 19 12 63 12 l63 0 74 -237z
m4001 190 c61 -140 562 -1341 566 -1355 5 -16 -3 -18 -59 -18 l-64 0 -86 208
-86 207 -348 0 -348 0 -85 -207 -86 -208 -63 0 c-47 0 -63 3 -59 13 21 52 580
1394 584 1400 2 4 29 7 59 7 l55 0 20 -47z m3057 -10 l-3 -58 -242 -3 -243 -2
0 -650 0 -650 -60 0 -60 0 0 650 0 650 -242 2 -243 3 -3 58 -3 57 551 0 551 0
-3 -57z m502 -598 l0 -655 350 0 350 0 0 -55 0 -55 -410 0 -410 0 0 710 0 710
60 0 60 0 0 -655z m1865 595 l0 -55 -332 -3 -333 -2 0 -255 0 -255 295 0 295
0 0 -55 0 -55 -295 0 -295 0 0 -285 0 -285 340 0 340 0 0 -55 0 -55 -400 0
-400 0 0 710 0 710 393 -2 392 -3 0 -55z"/>
<path d="M4290 9640 l0 -120 240 0 240 0 0 120 0 120 -25 0 c-22 0 -24 -4 -27
-57 l-3 -58 -62 -3 -63 -3 0 61 0 60 -60 0 -60 0 0 -60 0 -60 -60 0 -60 0 0
60 0 60 -30 0 -30 0 0 -120z"/>
<path d="M7200 9640 l0 -120 240 0 240 0 0 120 0 120 -30 0 -30 0 0 -60 0 -60
-60 0 -60 0 0 60 0 60 -60 0 -60 0 0 -60 0 -61 -62 3 -63 3 -3 58 c-3 53 -5
57 -27 57 l-25 0 0 -120z"/>
<path d="M4350 9160 l0 -240 180 0 180 0 0 240 0 240 -180 0 -180 0 0 -240z
m247 0 c1 -80 -2 -117 -10 -122 -7 -4 -36 -8 -64 -8 l-53 0 0 125 0 126 63 -3
62 -3 2 -115z"/>
<path d="M7260 9160 l0 -240 180 0 180 0 0 240 0 240 -180 0 -180 0 0 -240z
m240 -5 l0 -125 -60 1 -60 2 0 123 0 124 60 0 60 0 0 -125z"/>
<path d="M3570 9040 l0 -120 240 0 240 0 0 120 0 120 -30 0 c-30 0 -30 0 -30
-60 0 -54 -2 -60 -23 -66 -13 -3 -41 -4 -63 -2 -42 3 -41 0 -43 91 l-1 38 -57
-3 -57 -3 -1 -60 0 -60 -60 0 -60 0 -3 63 c-3 58 -4 62 -27 62 l-25 0 0 -120z"/>
<path d="M5020 9040 l0 -120 240 0 240 0 0 120 0 120 -30 0 -30 0 0 -65 0 -65
-60 0 -60 0 0 65 0 65 -60 0 -60 0 0 -65 0 -66 -62 3 c-70 3 -64 -5 -67 96 -1
27 -5 32 -26 32 l-25 0 0 -120z"/>
<path d="M6470 9040 l0 -120 240 0 240 0 0 120 0 120 -25 0 c-23 0 -25 -4 -26
-47 -2 -83 2 -78 -64 -78 l-60 0 -3 63 -3 62 -59 0 -60 0 0 -65 0 -66 -57 3
-58 3 -3 63 c-3 61 -3 62 -32 62 l-30 0 0 -120z"/>
<path d="M7930 9040 l0 -120 235 0 235 0 0 120 0 120 -25 0 c-23 0 -24 -4 -27
-62 l-3 -63 -60 0 -60 0 -1 50 c-1 28 -2 56 -3 63 -1 8 -19 12 -56 12 l-55 0
-1 -32 c-1 -18 -1 -37 0 -42 1 -6 0 -20 -4 -33 -5 -22 -10 -24 -63 -21 l-57 3
-3 63 c-3 58 -4 62 -27 62 l-25 0 0 -120z"/>
<path d="M4288 8792 l-58 -3 0 -59 0 -60 -60 0 -60 0 0 -55 0 -55 420 0 420 0
0 55 0 55 -60 0 -60 0 0 60 0 60 -55 0 -55 0 0 -37 c0 -77 -6 -83 -71 -83
l-59 0 0 60 0 60 -60 0 -60 0 0 -60 0 -60 -60 0 -59 0 -3 63 -3 62 -57 -3z"/>
<path d="M7157 8792 c-14 -3 -17 -15 -17 -63 l0 -59 -60 0 c-33 0 -60 -4 -61
-10 0 -5 -1 -26 -1 -45 0 -19 1 -39 1 -45 1 -6 148 -10 421 -10 l420 0 0 55 0
55 -60 0 -60 0 0 60 0 60 -60 0 -60 0 0 -60 0 -60 -60 0 -60 0 0 60 0 60 -60
0 -60 0 0 -60 0 -61 -62 3 -63 3 -3 56 -3 57 -37 4 c-21 2 -45 2 -55 0z"/>
<path d="M3630 8498 l0 -293 -30 -63 c-17 -35 -30 -66 -30 -68 0 -2 106 -4
235 -4 129 0 235 2 235 5 0 3 -14 33 -30 66 -17 33 -30 65 -29 72 1 7 1 139 0
295 l-1 282 -175 0 -175 0 0 -292z m238 55 l3 -123 -66 0 -65 0 0 118 c0 65 3
122 7 126 4 4 32 6 63 4 l55 -3 3 -122z"/>
<path d="M5080 8490 l0 -301 -30 -59 -30 -60 240 0 240 0 -30 60 -30 59 0 301
0 300 -180 0 -180 0 0 -300z m240 65 l0 -125 -60 0 -60 0 0 125 0 125 60 0 60
0 0 -125z"/>
<path d="M6530 8485 l0 -306 -25 -49 c-14 -27 -25 -52 -25 -55 0 -3 106 -5
235 -5 l235 0 -30 60 -30 59 0 301 0 300 -180 0 -180 0 0 -305z m240 68 l0
-123 -60 0 -60 0 0 123 0 123 60 0 60 -1 0 -122z"/>
<path d="M7989 8508 c-1 -156 -1 -288 0 -295 1 -7 -12 -39 -29 -72 -16 -33
-30 -63 -30 -66 0 -3 106 -5 235 -5 129 0 235 2 235 4 0 2 -13 33 -30 68 l-30
63 0 293 0 292 -175 0 -175 0 -1 -282z m239 44 l3 -122 -66 0 -65 0 0 118 c0
65 2 121 5 124 3 3 32 5 63 4 l57 -2 3 -122z"/>
<path d="M4110 8310 c0 -114 2 -124 30 -180 l30 -59 0 -181 0 -180 60 0 60 0
0 183 0 182 120 120 120 120 125 -125 126 -125 -1 -165 c-1 -91 -1 -171 0
-177 0 -9 18 -13 55 -13 l55 0 0 175 c0 175 0 176 30 235 29 57 30 65 30 185
l0 125 -420 0 -420 0 0 -120z"/>
<path d="M7018 8313 c-3 -115 -2 -120 30 -186 l32 -69 0 -174 0 -174 55 0 55
0 0 178 0 177 125 125 125 125 120 -120 120 -120 0 -182 0 -183 60 0 60 0 0
180 0 181 30 59 c28 56 30 66 30 180 l0 120 -419 0 -420 0 -3 -117z"/>
<path d="M3570 7825 l0 -115 240 0 240 0 0 115 0 115 -240 0 -240 0 0 -115z"/>
<path d="M5020 7825 l0 -115 240 0 240 0 0 115 0 115 -240 0 -240 0 0 -115z"/>
<path d="M6470 7825 l0 -115 240 0 240 0 0 115 0 115 -240 0 -240 0 0 -115z"/>
<path d="M7930 7825 l0 -115 234 0 235 0 3 115 3 115 -237 0 -238 0 0 -115z"/>
<path d="M23233 9400 c-22 -5 -64 -18 -92 -31 l-51 -21 0 -308 0 -308 40 -16
c108 -43 254 -38 343 12 184 103 226 416 78 585 -67 75 -200 112 -318 87z"/>
<path d="M13543 9385 c-119 -36 -209 -131 -237 -250 -14 -56 -7 -151 14 -208
51 -136 167 -218 310 -219 143 0 259 81 314 221 25 63 23 182 -4 253 -58 155
-244 250 -397 203z"/>
<path d="M26635 8906 c-118 -44 -130 -176 -22 -233 50 -26 162 -21 231 10 l56
26 0 95 c0 65 -4 97 -12 103 -25 15 -211 14 -253 -1z"/>
<path d="M5354 6115 c-112 -11 -174 -11 -232 0 -29 5 -40 -1 -106 -54 l-73
-60 -7 -198 c-4 -109 -9 -236 -11 -283 -5 -100 -12 -279 -21 -518 l-7 -173
384 3 c368 3 387 2 460 -19 97 -28 158 -56 206 -97 l38 -33 39 33 c48 41 108
70 205 97 73 21 94 21 460 19 l383 -2 -7 222 c-4 123 -9 230 -10 238 -2 8 -6
119 -10 245 -4 127 -9 248 -11 270 -1 22 -3 75 -3 117 l-1 76 -72 61 c-72 60
-73 60 -123 55 -79 -9 -81 -9 -239 5 -230 22 -372 2 -537 -75 l-76 -36 -59 30
c-153 77 -323 100 -570 77z m390 -125 c43 -11 101 -32 129 -47 l52 -28 3 -484
c2 -458 1 -483 -15 -476 -106 46 -223 65 -408 65 -113 1 -245 12 -288 26 -19
6 -19 16 -12 363 4 196 9 381 10 411 1 30 3 78 4 106 l1 51 83 8 c45 5 109 11
142 15 120 14 220 11 299 -10z m871 0 c33 -5 76 -10 96 -10 l37 0 6 -87 c3
-49 9 -250 12 -448 3 -198 8 -368 10 -377 2 -12 -5 -20 -19 -23 -67 -14 -193
-25 -302 -25 -178 0 -292 -18 -397 -64 -16 -7 -17 21 -15 476 l2 483 52 28
c94 50 181 67 328 62 72 -2 157 -9 190 -15z"/>
<path d="M17175 6646 c-55 -25 -119 -90 -141 -142 -28 -67 -42 -64 251 -64
301 0 284 -6 241 85 -59 127 -220 183 -351 121z"/>
<path d="M17606 4179 c-16 -41 -81 -200 -144 -354 -63 -154 -116 -285 -119
-292 -4 -10 63 -13 291 -15 163 -2 296 -1 296 1 0 2 -61 155 -136 340 -75 185
-142 349 -148 365 -12 29 -12 29 -40 -45z"/>
</g>
</svg>
